<svg width="21" height="20" viewBox="0 0 21 20" fill="none" xmlns="http://www.w3.org/2000/svg">
<path d="M19.4046 0H1.2484C0.626549 0 0.122437 0.494031 0.122437 1.10345V18.8966C0.122437 19.506 0.626549 20 1.2484 20H11.0302V12.2655H8.37367V9.23793H11.0302V7.01034C11.0302 4.42759 12.6418 3.02069 14.9922 3.02069C15.7843 3.019 16.5759 3.05813 17.3638 3.13793V5.83793H15.7452C14.4644 5.83793 14.2146 6.43103 14.2146 7.3069V9.23448H17.2758L16.8782 12.2621H14.197V20H19.4046C20.0265 20 20.5306 19.506 20.5306 18.8966V1.10345C20.5306 0.494031 20.0265 0 19.4046 0Z" fill="white"/>
</svg>
