<svg width="21" height="20" viewBox="0 0 21 20" fill="none" xmlns="http://www.w3.org/2000/svg">
<path fill-rule="evenodd" clip-rule="evenodd" d="M10.4082 0C7.64321 0 7.28113 0 6.19489 0.0645161C5.10864 0.129032 4.35157 0.290323 3.72616 0.516129C3.06783 0.774194 2.47533 1.12903 1.91575 1.67742C1.35618 2.22581 0.994095 2.80645 0.730764 3.45161C0.467433 4.09677 0.302851 4.80645 0.269934 5.87097C0.204102 6.93548 0.204102 7.29032 0.204102 10C0.204102 12.7097 0.204102 13.0645 0.269934 14.129C0.335767 15.1935 0.500349 15.9355 0.730764 16.5484C0.994095 17.1935 1.35618 17.7742 1.91575 18.3226C2.47533 18.871 3.06783 19.2258 3.72616 19.4839C4.38448 19.7419 5.10864 19.9032 6.19489 19.9355C7.28113 20 7.64321 20 10.4082 20C13.1732 20 13.5352 20 14.6215 19.9355C15.7077 19.871 16.4648 19.7097 17.0902 19.4839C17.7485 19.2258 18.341 18.871 18.9006 18.3226C19.4602 17.7742 19.8223 17.1935 20.0856 16.5484C20.3489 15.9032 20.5135 15.1935 20.5464 14.129C20.6123 13.0645 20.6123 12.7097 20.6123 10C20.6123 7.29032 20.6123 6.93548 20.5464 5.87097C20.4806 4.80645 20.316 4.06452 20.0856 3.45161C19.8223 2.80645 19.4602 2.22581 18.9006 1.67742C18.341 1.12903 17.7485 0.774194 17.0902 0.516129C16.4319 0.258065 15.7077 0.0967742 14.6215 0.0645161C13.5352 0 13.1732 0 10.4082 0ZM10.4082 1.8064C13.1402 1.8064 13.4694 1.8064 14.5227 1.87091C15.5102 1.90317 16.0698 2.06446 16.4319 2.22575C16.8927 2.4193 17.2548 2.61285 17.6169 2.96769C17.9789 3.32253 18.2094 3.64511 18.3739 4.12898C18.5056 4.48382 18.6702 4.99994 18.736 5.99994C18.7423 6.20201 18.7485 6.37617 18.7545 6.54407V6.5441C18.7802 7.2607 18.8018 7.86303 18.8018 10.0322C18.8018 12.7096 18.8018 13.0322 18.736 14.0645C18.7031 15.0322 18.5385 15.5806 18.3739 15.9354C18.1764 16.387 17.9789 16.7419 17.6169 17.0967C17.2548 17.4516 16.9256 17.6774 16.4319 17.8387C16.0698 17.9677 15.5431 18.129 14.5227 18.1935C14.3169 18.1996 14.1394 18.2057 13.9683 18.2116L13.9681 18.2116L13.9679 18.2116L13.9675 18.2116C13.2363 18.2368 12.6217 18.258 10.4082 18.258C7.67611 18.258 7.34694 18.258 6.29362 18.1935C5.30613 18.1612 4.74655 17.9999 4.38447 17.8387C3.92364 17.6451 3.56156 17.4516 3.19948 17.0967C2.8374 16.7419 2.60698 16.4193 2.4424 15.9354C2.31074 15.5806 2.14615 15.0645 2.08032 14.0645C2.04741 12.9999 2.04741 12.6774 2.04741 9.99994C2.04741 7.32253 2.04741 6.99994 2.11324 5.96769C2.14615 4.99994 2.31074 4.45156 2.47532 4.09672C2.67282 3.64511 2.87032 3.29027 3.2324 2.93543C3.59448 2.58059 3.92364 2.35478 4.41739 2.19349C4.77947 2.06446 5.30613 1.90317 6.32654 1.83865C7.34694 1.8064 7.67611 1.8064 10.4082 1.8064ZM4.96601 9.66663C4.96601 6.89933 7.24428 4.66663 10.068 4.66663C12.8918 4.66663 15.1701 6.89933 15.1701 9.66663C15.1701 12.4339 12.8918 14.6666 10.068 14.6666C7.24428 14.6666 4.96601 12.4339 4.96601 9.66663ZM10.068 12.9056C8.23899 12.9056 6.76293 11.4591 6.76293 9.66661C6.76293 7.87415 8.23899 6.42761 10.068 6.42761C11.8971 6.42761 13.3731 7.87415 13.3731 9.66661C13.3731 11.4591 11.8971 12.9056 10.068 12.9056ZM17.2109 4.66671C17.2109 5.40309 16.6017 6.00004 15.8503 6.00004C15.0989 6.00004 14.4898 5.40309 14.4898 4.66671C14.4898 3.93033 15.0989 3.33337 15.8503 3.33337C16.6017 3.33337 17.2109 3.93033 17.2109 4.66671Z" fill="white"/>
</svg>
