<svg width="23" height="18" viewBox="0 0 23 18" fill="none" xmlns="http://www.w3.org/2000/svg">
<path d="M7.10053 17.8763C15.5719 17.8763 20.2053 10.9982 20.2053 5.03357C20.2053 4.83821 20.2053 4.64373 20.1919 4.45013C21.0933 3.81117 21.8714 3.02003 22.4897 2.11373C21.6492 2.47876 20.7574 2.71814 19.8444 2.82389C20.8058 2.2598 21.5255 1.37257 21.8693 0.327333C20.9652 0.853093 19.976 1.22362 18.9446 1.42293C17.5169 -0.0648003 15.2484 -0.428928 13.411 0.534731C11.5736 1.49839 10.6244 3.55018 11.0955 5.53957C7.39227 5.35763 3.94193 3.64346 1.60322 0.823653C0.380759 2.88606 1.00517 5.52449 3.02918 6.84901C2.29621 6.82772 1.57923 6.63395 0.938731 6.28405C0.938731 6.30253 0.938731 6.32189 0.938731 6.34125C0.939331 8.48985 2.48479 10.3404 4.63383 10.7659C3.95576 10.9471 3.24431 10.9736 2.55416 10.8433C3.15754 12.682 4.88667 13.9416 6.85718 13.9779C5.22625 15.234 3.21152 15.9159 1.13718 15.9139C0.770726 15.9132 0.404628 15.8915 0.0407715 15.8488C2.14706 17.1734 4.59784 17.876 7.10053 17.8728" fill="white"/>
</svg>
